<?xml version="1.0" encoding="UTF-8" standalone="no"?>
<!-- Generator: Adobe Illustrator 23.0.3, SVG Export Plug-In . SVG Version: 6.00 Build 0)  -->

<svg
   version="1.1"
   id="Layer_1"
   x="0px"
   y="0px"
   viewBox="0 0 2000 2000"
   style="enable-background:new 0 0 2000 2000;"
   xml:space="preserve"
   sodipodi:docname="Attack Point Technologies Logo-A4-White.svg"
   inkscape:version="1.1 (c68e22c387, 2021-05-23)"
   xmlns:inkscape="http://www.inkscape.org/namespaces/inkscape"
   xmlns:sodipodi="http://sodipodi.sourceforge.net/DTD/sodipodi-0.dtd"
   xmlns="http://www.w3.org/2000/svg"
   xmlns:svg="http://www.w3.org/2000/svg"><defs
   id="defs145" /><sodipodi:namedview
   id="namedview143"
   pagecolor="#505050"
   bordercolor="#ffffff"
   borderopacity="1"
   inkscape:pageshadow="0"
   inkscape:pageopacity="0"
   inkscape:pagecheckerboard="1"
   showgrid="false"
   inkscape:snap-text-baseline="false"
   inkscape:zoom="0.801"
   inkscape:cx="914.4819"
   inkscape:cy="1197.8777"
   inkscape:window-width="1920"
   inkscape:window-height="1009"
   inkscape:window-x="-8"
   inkscape:window-y="-8"
   inkscape:window-maximized="1"
   inkscape:current-layer="Layer_1" />
<style
   type="text/css"
   id="style78">
	.st0{fill:#99CF31;}
</style>
<g
   id="g140">
	<path
   class="st0"
   d="M1223.62,1021.63c0,10.62-8.61,19.23-19.23,19.23c-10.62,0-19.23-8.61-19.23-19.23c0-4.11,1.3-7.91,3.49-11.03   l-136.27-225.43l-13.57,22.37l105.44,175.68c0.4-0.02,0.8-0.06,1.2-0.06c10.62,0,19.23,8.61,19.23,19.23   c0,10.62-8.61,19.23-19.23,19.23s-19.23-8.61-19.23-19.23c0-4.48,1.54-8.59,4.11-11.86L1029.62,822.7l-13.97,23.04l71.29,118.27   c0.52-0.04,1.05-0.08,1.58-0.08c10.62,0,19.23,8.61,19.23,19.23s-8.61,19.23-19.23,19.23c-10.62,0-19.23-8.61-19.23-19.23   c0-4.35,1.46-8.35,3.9-11.57l-66.71-110.72l-109.15,179.99H776.38l97.54-160.84c-2.55-3.26-4.08-7.36-4.08-11.82   c0-10.62,8.61-19.23,19.23-19.23c10.62,0,19.23,8.61,19.23,19.23c0,10.62-8.61,19.23-19.23,19.23c-0.42,0-0.84-0.04-1.25-0.06   l-83.56,137.79h32.55l112.4-185.35c-2.39-3.21-3.83-7.17-3.83-11.48c0-10.62,8.61-19.23,19.23-19.23   c10.62,0,19.23,8.61,19.23,19.23c0,10.62-8.61,19.23-19.23,19.23c-0.57,0-1.13-0.04-1.69-0.09l-107.75,177.68h33.32l163.9-270.27   l149.75,247.65c0.74-0.09,1.5-0.15,2.27-0.15C1215.01,1002.4,1223.62,1011.01,1223.62,1021.63z"
   id="path80" />
	<g
   id="g138">
		<g
   id="g136">
			<g
   id="g104">
				<path
   d="M530.28,1173.29h-12.65l19.19-44.83h12.65l-4.99,11.65h25.41l-19.53-45.82h12.65l33.73,79H584.1l-9.21-21.53h-35.39      L530.28,1173.29z"
   id="path82"
   style="fill:#ffffff;fill-opacity:1" />
				<path
   d="M622.15,1173.29v-67.35h-33.73v-11.65h79.11v11.65H633.8v67.35H622.15z"
   id="path84"
   style="fill:#ffffff;fill-opacity:1" />
				<path
   d="M716.79,1173.29v-67.35h-33.73v-11.65h79.11v11.65h-33.73v67.35H716.79z"
   id="path86"
   style="fill:#ffffff;fill-opacity:1" />
				<path
   d="M766.5,1173.29h-12.65l33.73-79h11.65l33.73,79h-12.65l-9.88-23.3h-33.95L766.5,1173.29z M806.11,1140l-12.65-29.74      L780.7,1140H806.11z"
   id="path88"
   style="fill:#ffffff;fill-opacity:1" />
				<path
   d="M921.95,1153.2c0,11.21-8.43,20.08-19.75,20.08h-39.39c-10.99,0-19.86-8.88-19.86-19.86v-39.28      c0-10.98,8.99-19.86,19.97-19.86h39.28c11.21,0,19.75,8.88,19.75,19.97h-11.54c0-4.55-3.66-8.32-8.21-8.32h-39.28      c-4.66,0-8.32,3.66-8.32,8.32v39.17c0,4.55,3.66,8.32,8.21,8.32h39.39c4.66,0,8.21-3.99,8.21-8.54H921.95z"
   id="path90"
   style="fill:#ffffff;fill-opacity:1" />
				<path
   d="M937.48,1173.29v-79h11.65v64.58l52.59-64.58h14.98l-33.06,40.39l33.06,38.61h-15.31l-25.19-29.4l-23.97,29.4H937.48z"
   id="path92"
   style="fill:#ffffff;fill-opacity:1" />
				<path
   d="M1171.26,1120.25c0,10.98-8.88,19.86-19.86,19.86h-47.6v33.18h-11.65v-44.83h59.25c6.21,0,8.21-4.99,8.21-12.32      c0-3.99-0.56-10.21-8.21-10.21h-59.25v-11.65h59.25c10.98,0,19.86,8.88,19.86,19.86V1120.25z"
   id="path94"
   style="fill:#ffffff;fill-opacity:1" />
				<path
   d="M1186.79,1114.15c0-10.21,8.77-19.86,19.19-19.86h40.06c10.87,0,19.86,8.99,19.86,19.86v39.28      c0,10.87-8.99,19.86-19.86,19.86h-40.06c-10.43,0-19.19-9.65-19.19-19.86V1114.15z M1254.25,1110.71      c-2.11-2.33-4.88-4.77-8.21-4.77h-39.83c-4.22,0-7.77,4.11-7.77,8.21v39.28c0,4.11,3.44,8.32,7.77,8.32h39.83      c4.44,0,8.21-3.99,8.21-8.32V1110.71z"
   id="path96"
   style="fill:#ffffff;fill-opacity:1" />
				<path
   d="M1293.08,1173.29h-11.65v-79h11.65V1173.29z"
   id="path98"
   style="fill:#ffffff;fill-opacity:1" />
				<path
   d="M1308.61,1173.29v-79h11.65l55.81,61.03v-61.03h11.65v79h-10.87l-56.59-61.8v61.8H1308.61z"
   id="path100"
   style="fill:#ffffff;fill-opacity:1" />
				<path
   d="M1436.99,1173.29v-67.35h-33.73v-11.65h79.11v11.65h-33.73v67.35H1436.99z"
   id="path102"
   style="fill:#ffffff;fill-opacity:1" />
			</g>
			<g
   id="g132">
				<g
   id="g130">
					<path
   d="M826.78,1214.9h-15.13v-5.23h20.35v35.43h-5.23V1214.9z M847.14,1214.9h-9.9v-5.23h9.9V1214.9z"
   id="path106"
   style="fill:#ffffff;fill-opacity:1" />
					<path
   d="M904.52,1245.11h-35.48v-35.43h35.53v5.23h-30.31v10.1h25.03v5.23h-25.03v9.66h30.26V1245.11z"
   id="path108"
   style="fill:#ffffff;fill-opacity:1" />
					<path
   d="M961.9,1236.1c0,5.03-3.78,9.01-8.86,9.01h-17.67c-4.93,0-8.91-3.98-8.91-8.91v-17.62c0-4.93,4.03-8.91,8.96-8.91       h17.62c5.03,0,8.86,3.98,8.86,8.96h-5.18c0-2.04-1.64-3.73-3.68-3.73h-17.62c-2.09,0-3.73,1.64-3.73,3.73v17.57       c0,2.04,1.64,3.73,3.68,3.73h17.67c2.09,0,3.68-1.79,3.68-3.83H961.9z"
   id="path110"
   style="fill:#ffffff;fill-opacity:1" />
					<path
   d="M983.79,1245.11v-35.43h5.23V1225h25.03v-15.33h5.23v35.43h-5.23v-14.88h-25.03v14.88H983.79z"
   id="path112"
   style="fill:#ffffff;fill-opacity:1" />
					<path
   d="M1041.17,1245.11v-35.43h5.23l25.03,27.37v-27.37h5.23v35.43h-4.88l-25.38-27.72v27.72H1041.17z"
   id="path114"
   style="fill:#ffffff;fill-opacity:1" />
					<path
   d="M1098.55,1218.58c0-4.58,3.93-8.91,8.61-8.91h17.97c4.88,0,8.91,4.03,8.91,8.91v17.62c0,4.88-4.03,8.91-8.91,8.91       h-17.97c-4.68,0-8.61-4.33-8.61-8.91V1218.58z M1128.81,1217.04c-0.95-1.04-2.19-2.14-3.68-2.14h-17.87       c-1.89,0-3.48,1.84-3.48,3.68v17.62c0,1.84,1.54,3.73,3.48,3.73h17.87c1.99,0,3.68-1.79,3.68-3.73V1217.04z"
   id="path116"
   style="fill:#ffffff;fill-opacity:1" />
					<path
   d="M1191.36,1239.93v5.18h-35.43v-35.39h5.28l-0.05,30.21H1191.36z"
   id="path118"
   style="fill:#ffffff;fill-opacity:1" />
					<path
   d="M1212.51,1218.58c0-4.58,3.93-8.91,8.61-8.91h17.97c4.88,0,8.91,4.03,8.91,8.91v17.62c0,4.88-4.03,8.91-8.91,8.91       h-17.97c-4.68,0-8.61-4.33-8.61-8.91V1218.58z M1242.77,1217.04c-0.95-1.04-2.19-2.14-3.68-2.14h-17.87       c-1.89,0-3.48,1.84-3.48,3.68v17.62c0,1.84,1.54,3.73,3.48,3.73h17.87c1.99,0,3.68-1.79,3.68-3.73V1217.04z"
   id="path120"
   style="fill:#ffffff;fill-opacity:1" />
					<path
   d="M1305.33,1218.58h-5.18c0-2.04-1.64-3.68-3.68-3.68h-17.62c-2.09,0-3.73,1.64-3.73,3.73v17.57       c0,2.04,1.64,3.73,3.68,3.73h17.67c2.04,0,3.68-1.74,3.68-3.78v-5.92h-12.49V1225h17.72v11.15c0,4.93-3.98,8.96-8.91,8.96       h-17.67c-4.93,0-8.91-3.98-8.91-8.91v-17.62c0-4.93,4.03-8.91,8.96-8.91h17.62c4.88,0,8.86,3.93,8.86,8.81V1218.58z"
   id="path122"
   style="fill:#ffffff;fill-opacity:1" />
					<path
   d="M1332.5,1245.11h-5.23v-35.43h5.23V1245.11z"
   id="path124"
   style="fill:#ffffff;fill-opacity:1" />
					<path
   d="M1389.88,1245.11h-35.48v-35.43h35.53v5.23h-30.31v10.1h25.03v5.23h-25.03v9.66h30.26V1245.11z"
   id="path126"
   style="fill:#ffffff;fill-opacity:1" />
					<path
   d="M1438.4,1239.88c1.99,0,3.68-1.69,3.68-3.68v-1.29c0-2.74-0.5-4.68-3.68-4.68h-17.67c-4.93,0-8.91-3.98-8.91-8.91       v-2.74c0-4.93,4.03-8.91,8.96-8.91h17.67c4.93,0,8.91,4.03,8.91,8.96v0.05h-5.23c0-1.99-1.64-3.78-3.68-3.78h-17.67       c-1.99,0-3.73,1.69-3.73,3.68v2.74c0,1.94,1.74,3.68,3.68,3.68h17.67c4.83,0,8.91,3.48,8.91,8.46v2.74       c0,4.93-3.98,8.91-8.91,8.91h-17.67c-4.98,0-8.91-4.03-8.91-9.01h5.23v1.59c1,1.14,2.09,2.19,3.68,2.19H1438.4z"
   id="path128"
   style="fill:#ffffff;fill-opacity:1" />
				</g>
			</g>
			<rect
   x="517.63"
   y="1224.52"
   width="254.22"
   height="5.75"
   id="rect134"
   style="fill:#ffffff;fill-opacity:1" />
		</g>
	</g>
</g>
</svg>
